<svg xmlns="http://www.w3.org/2000/svg" width="50.248" height="65.178"><g><circle cx="19.124" cy="19.124" r="19.124" transform="rotate(-66.726 32.327 21.285)"/><path d="M33.467 63.25q-5.8-3.279-11.6-6.55c-1.609-.907-3.2-1.858-4.84-2.7A22.492 22.492 0 0 1 4.802 38.358a21.5 21.5 0 0 1 .982-13.008 20.235 20.235 0 0 1 9.441-10.721c.441-.238.891-.46 1.337-.689l2.124-.792c.1-.018.2-.032.3-.054.869-.193 1.73-.443 2.609-.573a20.086 20.086 0 0 1 14.011 2.949 22.877 22.877 0 0 1 9.83 25.832c-.253.885-.643 1.73-.954 2.6q-2.922 8.167-5.831 16.339a6.978 6.978 0 0 0-.63 2.164c0 .039-.013.1-.037.113-.3.117-.286.419-.374.65-.25.653-.475 1.315-.721 2.006l-2.139-1.207c-.073-.041-.169-.127-.219-.106m-.3-34.15a9.915 9.915 0 1 0-5.882 12.774 9.918 9.918 0 0 0 5.889-12.767Z"/><path d="m27.035 12.366-.329-.019-.406-.023c-.161-.01-.348-.022-.561-.019h-.713c-.262 0-.549.022-.859.033-.62.034-1.334.107-2.129.231-.2.027-.4.075-.61.113l-.317.062a3.818 3.818 0 0 0-.323.071l-.666.164c-.228.053-.454.132-.689.2a19.6 19.6 0 0 0-2.957 1.154 20.467 20.467 0 0 0-6.149 4.588 20.074 20.074 0 0 0-4.486 8.055l-.166.606-.138.618c-.1.412-.158.836-.233 1.26-.039.212-.054.428-.083.643s-.058.431-.069.649c-.026.436-.069.875-.066 1.319a19.911 19.911 0 0 0 .123 2.691c.061.451.114.907.208 1.358.074.455.192.9.3 1.359a20 20 0 0 0 2.21 5.262 21.934 21.934 0 0 0 1.7 2.412 21.583 21.583 0 0 0 2.085 2.169l.575.5.6.474c.2.163.412.3.619.454l.313.224.324.209.325.209c.108.071.217.14.33.2l.673.388.693.356.174.089.178.081.357.161.357.162.365.144.366.144.184.072.187.063.749.253.763.216a19.865 19.865 0 0 0 6.338.642l.791-.059.785-.1.2-.024.194-.033.387-.068.387-.068.382-.087.382-.086.191-.043.188-.053.751-.21.737-.245c.124-.038.244-.084.364-.132l.36-.139.359-.14.352-.156c.233-.107.471-.2.7-.321l.682-.344.663-.374a21.532 21.532 0 0 0 2.478-1.707 21.934 21.934 0 0 0 2.153-2.022 20.015 20.015 0 0 0 3.226-4.712c.194-.424.4-.84.564-1.272.182-.424.325-.859.476-1.289a19.9 19.9 0 0 0 .66-2.612c.092-.434.138-.872.2-1.305.033-.216.041-.434.062-.65s.044-.431.048-.646c.011-.43.041-.858.024-1.281l-.011-.633-.042-.627a20.066 20.066 0 0 0-2.78-8.791 20.463 20.463 0 0 0-5.1-5.728 19.576 19.576 0 0 0-2.666-1.723c-.217-.113-.423-.235-.636-.333l-.619-.294-.151-.071-.152-.063-.3-.124c-.2-.079-.385-.167-.575-.233-.754-.281-1.438-.5-2.039-.653-.3-.074-.579-.148-.835-.2l-.7-.138c-.208-.045-.394-.071-.554-.094l-.4-.059-.327-.048.328.035.4.044c.161.017.348.036.558.073l.706.113c.259.048.54.113.845.176a21.217 21.217 0 0 1 2.075.588c.194.061.386.143.588.216l.3.115.155.059.154.067.636.277c.218.092.431.209.654.317a19.688 19.688 0 0 1 2.759 1.668 20.692 20.692 0 0 1 5.374 5.719 20.526 20.526 0 0 1 3.07 9.024 21 21 0 0 1-.842 8.1c-.15.452-.294.91-.478 1.357-.166.455-.374.894-.573 1.342a20.764 20.764 0 0 1-3.323 4.978 22.688 22.688 0 0 1-2.246 2.151 22.3 22.3 0 0 1-2.6 1.821l-.7.4-.717.368c-.237.128-.488.229-.734.344l-.371.167-.378.15-.38.149c-.126.051-.254.1-.384.141l-.777.263-.792.226-.2.056-.2.047-.4.093-.4.093-.409.073-.409.073-.205.036-.207.027-.83.1-.836.065a20.755 20.755 0 0 1-6.7-.678l-.806-.231-.791-.269-.2-.067-.194-.076-.387-.154-.386-.154-.377-.172-.376-.172-.188-.086-.184-.095-.731-.38-.709-.413a5.914 5.914 0 0 1-.348-.215l-.342-.223-.341-.223-.33-.238c-.217-.161-.443-.311-.65-.484l-.629-.5-.6-.531a22.368 22.368 0 0 1-2.179-2.3 22.67 22.67 0 0 1-1.769-2.557 20.775 20.775 0 0 1-2.259-5.556c-.1-.478-.221-.951-.292-1.429-.091-.475-.14-.953-.2-1.426a21.008 21.008 0 0 1 .8-8.1 20.537 20.537 0 0 1 4.817-8.225 20.692 20.692 0 0 1 6.412-4.526 19.668 19.668 0 0 1 3.037-1.081c.24-.06.472-.133.7-.179l.679-.144c.11-.025.22-.045.329-.061l.322-.052c.212-.032.417-.073.619-.094a21.211 21.211 0 0 1 2.151-.16c.312 0 .6-.008.863 0l.715.031c.213.005.4.024.561.04l.405.039Z" fill="#fff"/><path d="M25.775 28.49c-2.6.876-.776 2.367-2.354 3.078-1.487.669-11.529 2.541-12.685 2.755a.121.121 0 0 1-.053-.235l8.937-2.493a.4.4 0 0 0 .277-.487l-.007-.026a.4.4 0 0 0-.473-.281l-9.053 2.134a.121.121 0 0 1-.145-.086l-.03-.114a.122.122 0 0 1 .082-.148l8.892-2.708a.4.4 0 0 0-.21-.764l-9.03 2.2a.121.121 0 0 1-.146-.085l-.031-.114a.121.121 0 0 1 .08-.147l8.877-2.779a.4.4 0 0 0 .263-.483l-.007-.026a.4.4 0 0 0-.485-.278l-8.961 2.411a.121.121 0 0 1-.073-.23c1.1-.4 10.7-3.913 12.316-4.1 1.719-.193.909 2.021 3.594 1.448a105.607 105.607 0 0 0 12.92-3.624 1.983 1.983 0 0 0 .849-3.17A18.637 18.637 0 0 0 6.928 36.587a1.983 1.983 0 0 0 2.3 1.5c6.833-1.271 15.767-3.489 16.755-4.307 2.536-8.013 13.885-5.736 14.7-2.454s-8.165 10.59-14.146 4.687c-1.2-.25-9.364 1.739-15.873 3.712a1.987 1.987 0 0 0-1.077 3 18.635 18.635 0 0 0 33-16.757 1.986 1.986 0 0 0-2.229-1.269 106.361 106.361 0 0 0-14.574 3.781" fill="#fc0"/><path d="M25.642.6a5.319 5.319 0 0 0-4.987.859A6.461 6.461 0 0 0 16.516.012a9.4 9.4 0 0 0-7.493 2.944A6.076 6.076 0 0 0 7.25 7.373a5.568 5.568 0 0 0-.566.169 4.806 4.806 0 0 0-3.291 4.364 4.424 4.424 0 0 0 2.377 4.189 6.547 6.547 0 0 0 5.091.467 5.862 5.862 0 0 0 1.368-.643 8.547 8.547 0 0 1 2.162 3.678l.1.274.235-.17a21.873 21.873 0 0 1 6.017-3.2 12.044 12.044 0 0 1 4.727-.585l.438.038-.238-.37a5.676 5.676 0 0 1-.44-4.532 2.933 2.933 0 0 0 .531-.118 4.653 4.653 0 0 0 2.264-1.784 6.105 6.105 0 0 0 1.057-4.924A5.323 5.323 0 0 0 25.642.6Z" fill="#fc0"/><path d="m12.157 15.978-.182.125a2.6 2.6 0 0 1-.227.145c-.093.052-.2.12-.322.179l-.2.1c-.07.033-.145.062-.223.1-.155.07-.331.125-.52.188a6.4 6.4 0 0 1-2.982.172 5.73 5.73 0 0 1-1.81-.645c-.152-.08-.294-.182-.442-.278a5.242 5.242 0 0 1-.418-.338 4.177 4.177 0 0 1-.731-.844 4.125 4.125 0 0 1-.5-1.05 4.6 4.6 0 0 1-.205-1.177 4.958 4.958 0 0 1 .439-2.28 4.682 4.682 0 0 1 1.335-1.7 4.956 4.956 0 0 1 .84-.544 2.314 2.314 0 0 1 .217-.105c.073-.032.144-.066.217-.1.147-.053.289-.113.435-.153a5.371 5.371 0 0 1 .85-.187 5.149 5.149 0 0 1 .8-.039 4.382 4.382 0 0 1 1.342.244 3.75 3.75 0 0 1 .906.47 3.052 3.052 0 0 1 .287.234 2.151 2.151 0 0 1 .192.189l.147.166-.167-.144a2.249 2.249 0 0 0-.212-.161 3.109 3.109 0 0 0-.3-.193 3.785 3.785 0 0 0-.911-.353 4.338 4.338 0 0 0-1.275-.11 5.081 5.081 0 0 0-.735.1 5.229 5.229 0 0 0-.767.23c-.13.045-.256.108-.386.165-.064.031-.127.066-.191.1a2.056 2.056 0 0 0-.189.107 4.647 4.647 0 0 0-.724.526 4.286 4.286 0 0 0-1.109 1.521 4.562 4.562 0 0 0-.354 1.983 3.857 3.857 0 0 0 .576 1.9 3.709 3.709 0 0 0 .6.744c.11.114.235.21.353.311s.248.187.381.264a5.552 5.552 0 0 0 1.613.684 6.318 6.318 0 0 0 1.541.2 6.5 6.5 0 0 0 1.29-.12 6.219 6.219 0 0 0 .95-.27c.13-.043.239-.1.336-.137s.177-.081.241-.114ZM29.085 4.243a8.129 8.129 0 0 0-.59-.682 4.94 4.94 0 0 1-4.6 6.374c-2.76.139-9 2.52-10.9 5.226a19.431 19.431 0 0 1 11.062-3.874 9.663 9.663 0 0 1 1.111-.025c.021-.069.042-.138.067-.206a2.932 2.932 0 0 0 .531-.118 4.653 4.653 0 0 0 2.264-1.784 6.109 6.109 0 0 0 1.055-4.911Z"/><path d="m25.415 10.845.177-.035a2.983 2.983 0 0 0 .486-.155 3.7 3.7 0 0 0 1.441-1.122 5.567 5.567 0 0 0 1.109-2.431 5.3 5.3 0 0 0 .1-.765 5.072 5.072 0 0 0-.012-.8 4.758 4.758 0 0 0-.417-1.6 5.11 5.11 0 0 0-2.2-2.294 5.044 5.044 0 0 0-2.581-.626 4.778 4.778 0 0 0-1.793.425c-.2.1-.355.175-.455.238l-.156.091.14-.115a4.516 4.516 0 0 1 .421-.307 4.589 4.589 0 0 1 1.814-.671 4.874 4.874 0 0 1 1.362 0 5.39 5.39 0 0 1 .748.16 5.529 5.529 0 0 1 .76.29 5.437 5.437 0 0 1 1.447.986 5.1 5.1 0 0 1 1.11 1.535 4.723 4.723 0 0 1 .317.918 5.187 5.187 0 0 1 .132.924 5.282 5.282 0 0 1-.022.9 5.455 5.455 0 0 1-.152.842 5.532 5.532 0 0 1-1.419 2.532 3.666 3.666 0 0 1-1.66.994 2.79 2.79 0 0 1-.516.083ZM12.486 16.193l.23.22a8.284 8.284 0 0 1 .629.668 6.475 6.475 0 0 1 .766 1.247c.06.129.117.265.179.405l.093.213.086.223.04.1.028.069.054.133c0 .038.031 0 .051-.009l.061-.046.131-.1a22.258 22.258 0 0 1 4.41-2.528 14.966 14.966 0 0 1 2.918-.9c.262-.051.53-.088.8-.128l.409-.041.206-.02.208-.01.418-.019h.648l-.067-.16a6.1 6.1 0 0 1-.229-.74 6.6 6.6 0 0 1-.182-1.854 5.882 5.882 0 0 1 .121-.913c.017-.075.03-.15.051-.223l.056-.191.008-.014c.003-.006-.009 0-.015 0h-.093l-.206.009-.409.019-.4.034c-.267.024-.533.039-.793.07l-.773.1a22.154 22.154 0 0 0-5.266 1.359l-.268.106-.257.115c-.169.076-.335.147-.493.222-.312.16-.614.3-.881.454l-.392.219-.353.218c-.229.135-.425.279-.607.4s-.332.244-.469.344-.246.191-.334.265l-.272.225.252-.247c.082-.081.185-.182.314-.292s.27-.247.445-.38.361-.295.582-.447l.342-.245.381-.247c.26-.176.556-.335.864-.516.156-.086.32-.167.487-.254l.255-.131.266-.123a20.685 20.685 0 0 1 5.315-1.615l.787-.121c.266-.039.537-.061.81-.093l.412-.044c.138-.012.277-.019.417-.029l.536-.033.41-.024.207-.012.1-.006h.026c.006 0 .008 0 0 .005v.012l-.017.048-.135.388-.068.2-.067.2-.017.052-.007.025-.013.048-.027.1c-.018.064-.027.131-.042.2a5.335 5.335 0 0 0-.1.807 6.117 6.117 0 0 0 .171 1.662 5.562 5.562 0 0 0 .2.657l.032.078.016.039.008.019.017.039.076.167.094.169c.125.228.249.446.372.661l-.818-.061-.406-.031h-.2l-.4-.009-.395.012-.2.006-.2.016-.388.032c-.256.033-.511.063-.762.106a15.366 15.366 0 0 0-2.829.783 24.128 24.128 0 0 0-4.434 2.282l-.306.2-.154.1c-.048.025-.113.1-.119 0l-.2-.63-.071-.225-.078-.215c-.052-.141-.1-.278-.15-.409a6.556 6.556 0 0 0-.662-1.268 8.838 8.838 0 0 0-.571-.708Z"/><path d="M17.418.828a4.246 4.246 0 0 1 2.431 7.879c.68-1.843 2.923-6.766-2.431-7.879Z"/><path d="m20.844 7.837.153-.183c.046-.063.1-.141.165-.235a3.883 3.883 0 0 0 .19-.34 4.072 4.072 0 0 0 .341-1 4.309 4.309 0 0 0 .059-1.379 4.181 4.181 0 0 0-.165-.777 4.328 4.328 0 0 0-.344-.779 4.284 4.284 0 0 0-.546-.722 4.421 4.421 0 0 0-.74-.607 5.775 5.775 0 0 0-1.927-.759 10.134 10.134 0 0 0-2.266-.182 9.452 9.452 0 0 0-4.229 1.079 8.682 8.682 0 0 0-1.588 1.089 8.246 8.246 0 0 0-1.154 1.232A6.121 6.121 0 0 0 7.7 6.468c-.041.142-.056.271-.08.382s-.027.208-.033.285l-.011.238-.018-.238v-.291c0-.116.012-.248.038-.4a5.945 5.945 0 0 1 .917-2.369 8.02 8.02 0 0 1 1.117-1.38 8.5 8.5 0 0 1 1.623-1.248 9.235 9.235 0 0 1 4.493-1.26 9.779 9.779 0 0 1 2.427.226 6.053 6.053 0 0 1 2.109.921 4.769 4.769 0 0 1 .8.731 4.581 4.581 0 0 1 .568.852 4.532 4.532 0 0 1 .324.892 4.331 4.331 0 0 1 .116.86 4.389 4.389 0 0 1-.191 1.458 4.022 4.022 0 0 1-.457 1 3.671 3.671 0 0 1-.232.324c-.075.088-.141.16-.194.217Z"/><path d="m26.155 16.939-.831.137c-.267.04-.591.113-.966.181-.188.031-.386.085-.6.13s-.435.091-.665.157a23.388 23.388 0 0 0-3.173 1.025l-.436.183-.222.093-.22.1-.448.206-.449.226-.227.114-.225.123-.455.25c-.3.181-.606.353-.9.552s-.59.395-.877.592l-.417.308c-.139.1-.268.211-.4.314a18.847 18.847 0 0 0-1.462 1.286 18.542 18.542 0 0 0-2.167 2.512 14.991 14.991 0 0 0-1.18 1.931c-.12.241-.211.431-.265.562l-.087.2.043-.214c.027-.141.078-.346.153-.61a11.739 11.739 0 0 1 .877-2.151 14.542 14.542 0 0 1 1.966-2.857 14.756 14.756 0 0 1 1.462-1.453c.137-.115.27-.238.414-.349l.434-.339c.3-.216.6-.44.926-.639s.646-.391.966-.576l.489-.252c.081-.041.161-.083.243-.122l.245-.111c.163-.073.324-.147.485-.216l.484-.19.239-.093.24-.082.471-.157a17.1 17.1 0 0 1 3.384-.7c.242-.034.477-.042.7-.06s.426-.035.621-.035c.389-.006.721-.021.993-.01.542.019.837.034.837.034ZM39.758 32.19l-.2.5c-.066.162-.165.35-.272.575-.056.111-.126.224-.2.347l-.109.189-.128.191a7.624 7.624 0 0 1-1.474 1.649 7.805 7.805 0 0 1-1.076.758 8.96 8.96 0 0 1-1.278.6 9.894 9.894 0 0 1-1.357.385 10.668 10.668 0 0 1-1.3.17 9.631 9.631 0 0 1-2.2-.114 6.3 6.3 0 0 1-1.427-.4 2.175 2.175 0 0 1-.21-.1 1.606 1.606 0 0 1-.149-.081l-.118-.074.128.056a1.618 1.618 0 0 0 .157.061c.062.024.135.048.218.07a7.081 7.081 0 0 0 1.431.242 11.29 11.29 0 0 0 2.141-.043c.4-.049.816-.118 1.241-.214a11.779 11.779 0 0 0 1.291-.386 10.392 10.392 0 0 0 1.223-.557 8.7 8.7 0 0 0 1.052-.68 8.49 8.49 0 0 0 1.529-1.483l.142-.174.124-.173c.08-.113.16-.217.227-.319.128-.208.248-.382.333-.533ZM31.432 26.242s-.759.283-1.991.718l-2.166.755c-.813.283-1.718.583-2.635.931l-.165.069-.082.034c-.028.011-.044.023-.066.034a.538.538 0 0 0-.11.063.448.448 0 0 0-.071.091 1.856 1.856 0 0 0-.167.6c-.034.226-.061.459-.107.691a2.036 2.036 0 0 1-.246.689.978.978 0 0 1-.264.283l-.152.1-.147.073a6.012 6.012 0 0 1-.568.228c-.368.128-.713.228-1.03.316a28.664 28.664 0 0 1-2.065.48l.538-.182c.346-.119.846-.29 1.457-.514.3-.114.638-.24.986-.389.173-.076.352-.156.521-.249l.126-.071.109-.078a.606.606 0 0 0 .159-.19 1.719 1.719 0 0 0 .168-.563c.034-.212.052-.439.082-.679a3.51 3.51 0 0 1 .063-.371 1.473 1.473 0 0 1 .146-.4.872.872 0 0 1 .152-.2.86.86 0 0 1 .2-.131c.032-.017.069-.038.1-.05l.089-.037.179-.075c.947-.359 1.854-.629 2.685-.874s1.582-.443 2.216-.607c1.265-.321 2.056-.495 2.056-.495Z" fill="red"/></g><path d="m20.512 48.555.842.023c.27.012.6 0 .983.005.191 0 .4-.01.611-.015s.444-.007.683-.028a23.378 23.378 0 0 0 3.309-.407l.463-.1.236-.049.236-.059.479-.118.483-.137.245-.069.244-.078.493-.159c.327-.121.662-.232.991-.371s.654-.276.973-.415l.472-.223c.156-.072.3-.156.454-.232a18.935 18.935 0 0 0 1.678-.986 18.543 18.543 0 0 0 2.6-2.057 14.988 14.988 0 0 0 1.524-1.673c.164-.213.288-.383.367-.5l.124-.18-.083.2a7.522 7.522 0 0 1-.265.57 11.744 11.744 0 0 1-1.268 1.946 14.544 14.544 0 0 1-2.471 2.434 14.721 14.721 0 0 1-1.71 1.15c-.156.087-.31.183-.473.264l-.49.251c-.335.156-.675.318-1.03.453s-.708.262-1.058.382l-.528.155c-.088.025-.174.051-.262.074l-.262.063c-.174.041-.346.083-.517.121l-.512.1-.252.046-.251.035-.493.065a17.092 17.092 0 0 1-3.456.046c-.244-.013-.476-.049-.695-.073s-.425-.046-.616-.083c-.383-.068-.712-.116-.977-.178-.53-.122-.821-.193-.821-.193Z" fill="red"/></svg>